<svg xmlns="http://www.w3.org/2000/svg" xmlns:xlink="http://www.w3.org/1999/xlink" width="500" zoomAndPan="magnify" viewBox="0 0 375 374.999991" height="500" preserveAspectRatio="xMidYMid meet" version="1.0"><rect x="-37.5" width="450" fill="#ffffff" y="-37.499999" height="449.999989" fill-opacity="1"/><rect x="-37.5" width="450" fill="#ffffff" y="-37.499999" height="449.999989" fill-opacity="1"/><path fill="#fe40b4" d="M 187.511719 374.996094 C 84.117188 374.996094 0 290.894531 0 187.515625 C 0 84.121094 84.117188 0.00390625 187.511719 0.00390625 C 290.894531 0.00390625 375 84.121094 375 187.515625 C 375 290.894531 290.898438 374.996094 187.511719 374.996094 Z M 187.511719 18.570312 C 94.355469 18.570312 18.566406 94.359375 18.566406 187.515625 C 18.566406 280.660156 94.355469 356.433594 187.511719 356.433594 C 280.660156 356.433594 356.4375 280.660156 356.4375 187.515625 C 356.441406 94.359375 280.660156 18.570312 187.511719 18.570312 Z M 187.511719 18.570312 " fill-opacity="1" fill-rule="nonzero"/><path fill="#fe40b4" d="M 187.507812 324.230469 C 112.109375 324.230469 50.765625 262.90625 50.765625 187.515625 C 50.765625 112.113281 112.109375 50.769531 187.507812 50.769531 C 262.902344 50.769531 324.234375 112.113281 324.234375 187.515625 C 324.234375 262.90625 262.902344 324.230469 187.507812 324.230469 Z M 187.507812 69.335938 C 122.34375 69.335938 69.332031 122.351562 69.332031 187.515625 C 69.332031 252.664062 122.34375 305.671875 187.507812 305.671875 C 252.664062 305.671875 305.675781 252.664062 305.675781 187.515625 C 305.675781 122.351562 252.664062 69.335938 187.507812 69.335938 Z M 187.507812 69.335938 " fill-opacity="1" fill-rule="nonzero"/><path fill="#fe40b4" d="M 187.507812 274.914062 C 139.300781 274.914062 100.082031 235.707031 100.082031 187.511719 C 100.082031 139.304688 139.300781 100.085938 187.507812 100.085938 C 235.707031 100.085938 274.917969 139.304688 274.917969 187.511719 C 274.917969 235.707031 235.707031 274.914062 187.507812 274.914062 Z M 187.507812 118.652344 C 149.539062 118.652344 118.648438 149.542969 118.648438 187.511719 C 118.648438 225.46875 149.539062 256.355469 187.507812 256.355469 C 225.46875 256.355469 256.359375 225.46875 256.359375 187.511719 C 256.359375 149.542969 225.46875 118.652344 187.507812 118.652344 Z M 187.507812 118.652344 " fill-opacity="1" fill-rule="nonzero"/><path fill="#fe40b4" d="M 209.21875 185.632812 C 207.675781 214.214844 166.390625 214.222656 164.851562 185.632812 C 163.308594 157.007812 207.683594 157.171875 209.21875 185.632812 C 209.820312 196.792969 227.230469 196.851562 226.625 185.632812 C 225.417969 163.246094 209.410156 147.246094 187.027344 146.039062 C 164.6875 144.835938 148.550781 165.0625 147.445312 185.632812 C 146.242188 207.960938 166.457031 224.105469 187.027344 225.214844 C 209.355469 226.414062 225.515625 206.199219 226.625 185.632812 C 227.230469 174.410156 209.820312 174.46875 209.21875 185.632812 Z M 209.21875 185.632812 " fill-opacity="1" fill-rule="nonzero"/></svg>