<svg xmlns="http://www.w3.org/2000/svg" xmlns:xlink="http://www.w3.org/1999/xlink" width="500" zoomAndPan="magnify" viewBox="0 0 375 374.999991" height="500" preserveAspectRatio="xMidYMid meet" version="1.0"><defs><clipPath id="9262a65c49"><path d="M 8.878906 8.878906 L 365.878906 8.878906 L 365.878906 365.878906 L 8.878906 365.878906 Z M 8.878906 8.878906 " clip-rule="nonzero"/></clipPath></defs><rect x="-37.5" width="450" fill="#ffffff" y="-37.499999" height="449.999989" fill-opacity="1"/><rect x="-37.5" width="450" fill="#000000" y="-37.499999" height="449.999989" fill-opacity="1"/><g clip-path="url(#9262a65c49)"><path fill="#fe40b4" d="M 187.507812 366.109375 C 89.011719 366.109375 8.878906 285.992188 8.878906 187.515625 C 8.878906 89.015625 89.011719 8.882812 187.507812 8.882812 C 285.996094 8.882812 366.113281 89.015625 366.113281 187.515625 C 366.113281 285.992188 285.996094 366.109375 187.507812 366.109375 Z M 187.507812 26.570312 C 98.765625 26.570312 26.566406 98.769531 26.566406 187.511719 C 26.566406 276.246094 98.765625 348.429688 187.507812 348.429688 C 276.242188 348.429688 348.433594 276.242188 348.433594 187.511719 C 348.433594 98.769531 276.242188 26.570312 187.507812 26.570312 Z M 187.507812 26.570312 " fill-opacity="1" fill-rule="nonzero"/></g><path fill="#fe40b4" d="M 187.503906 317.75 C 115.679688 317.75 57.242188 259.328125 57.242188 187.511719 C 57.242188 115.683594 115.679688 57.246094 187.503906 57.246094 C 259.328125 57.246094 317.753906 115.683594 317.753906 187.511719 C 317.753906 259.328125 259.328125 317.75 187.503906 317.75 Z M 187.503906 74.933594 C 125.429688 74.933594 74.929688 125.4375 74.929688 187.511719 C 74.929688 249.574219 125.429688 300.070312 187.503906 300.070312 C 249.574219 300.070312 300.074219 249.574219 300.074219 187.511719 C 300.074219 125.4375 249.574219 74.933594 187.503906 74.933594 Z M 187.503906 74.933594 " fill-opacity="1" fill-rule="nonzero"/><path fill="#fe40b4" d="M 187.503906 270.773438 C 141.582031 270.773438 104.21875 233.421875 104.21875 187.507812 C 104.21875 141.585938 141.582031 104.222656 187.503906 104.222656 C 233.421875 104.222656 270.777344 141.585938 270.777344 187.507812 C 270.777344 233.421875 233.421875 270.773438 187.503906 270.773438 Z M 187.503906 121.910156 C 151.335938 121.910156 121.90625 151.335938 121.90625 187.507812 C 121.90625 223.667969 151.335938 253.089844 187.503906 253.089844 C 223.667969 253.089844 253.09375 223.667969 253.09375 187.507812 C 253.09375 151.335938 223.667969 121.910156 187.503906 121.910156 Z M 187.503906 121.910156 " fill-opacity="1" fill-rule="nonzero"/><path fill="#fe40b4" d="M 208.1875 185.71875 C 206.71875 212.949219 167.386719 212.953125 165.921875 185.71875 C 164.453125 158.449219 206.722656 158.605469 208.1875 185.71875 C 208.757812 196.351562 225.34375 196.40625 224.765625 185.71875 C 223.617188 164.390625 208.371094 149.152344 187.046875 148.003906 C 165.765625 146.855469 150.394531 166.121094 149.339844 185.71875 C 148.195312 206.988281 167.453125 222.367188 187.046875 223.425781 C 208.316406 224.570312 223.710938 205.3125 224.765625 185.71875 C 225.34375 175.027344 208.757812 175.082031 208.1875 185.71875 Z M 208.1875 185.71875 " fill-opacity="1" fill-rule="nonzero"/></svg>