<svg width="428" height="493" viewBox="0 0 428 493" fill="none" xmlns="http://www.w3.org/2000/svg">
<path d="M327.031 392.647C344.133 375.545 357.7 355.241 366.955 332.895C376.211 310.549 380.976 286.598 380.975 262.411C380.975 238.225 376.211 214.274 366.955 191.928C357.698 169.583 344.131 149.278 327.028 132.175L326.982 132.221C314.351 119.828 299.454 109.972 283.098 103.197C266.339 96.2548 248.376 92.6824 230.236 92.6822C212.096 92.682 194.133 96.2538 177.373 103.196C160.614 110.137 145.386 120.313 132.559 133.14C119.732 145.967 109.557 161.195 102.615 177.954C95.673 194.713 92.1013 212.676 92.1014 230.817C92.1016 248.957 95.6741 266.92 102.616 283.679C109.558 300.439 119.734 315.667 132.561 328.494L132.609 328.446C140.962 336.565 150.783 343.03 161.553 347.491C172.725 352.119 184.701 354.501 196.795 354.501C208.888 354.501 220.863 352.119 232.036 347.491C243.209 342.863 253.361 336.08 261.912 327.529C270.463 318.977 277.247 308.825 281.875 297.653C286.502 286.48 288.884 274.505 288.884 262.411C288.884 250.318 286.502 238.342 281.874 227.169C277.246 215.996 270.462 205.844 261.911 197.293L261.855 197.348C253.32 189.284 242.011 184.773 230.237 184.772C218.025 184.772 206.313 189.624 197.678 198.259C189.043 206.894 184.192 218.605 184.192 230.817C184.192 243.029 189.043 254.741 197.679 263.377L213.958 247.097C204.967 238.106 204.967 223.529 213.958 214.539C222.949 205.548 237.526 205.548 246.517 214.539L246.548 214.508C272.599 241.547 272.295 284.586 245.632 311.249C218.66 338.221 174.928 338.221 147.955 311.248L147.921 311.282C103.889 266.258 104.193 194.064 148.838 149.419C193.793 104.465 266.679 104.466 311.634 149.421L311.668 149.387C373.681 212.395 373.378 313.741 310.751 376.367C247.815 439.303 145.775 439.302 82.8379 376.365L82.7999 376.403C2.805 295.412 3.11109 164.909 83.7197 84.3005C164.637 3.38315 295.832 3.38474 376.751 84.3039L393.031 68.0246C371.652 46.646 346.272 29.6872 318.34 18.1169C290.407 6.54664 260.468 0.591508 230.234 0.591187C200.001 0.590909 170.063 6.54533 142.131 18.1149C114.199 29.6845 88.8187 46.6428 67.4404 68.0211C46.0621 89.3995 29.1038 114.78 17.5341 142.712C5.96447 170.644 0.00944669 200.582 0.00976564 230.816C0.0100974 261.05 5.96592 290.988 17.5362 318.92C29.1065 346.853 46.0652 372.233 67.4439 393.611L67.4901 393.565C84.3975 410.234 104.369 423.482 126.312 432.571C148.658 441.827 172.609 446.591 196.795 446.591C220.982 446.591 244.932 441.828 267.278 432.572C289.624 423.316 309.928 409.75 327.031 392.647Z" fill="#FE40B4"/>
<path d="M359.59 425.207C380.968 403.828 397.927 378.448 409.496 350.516C421.066 322.584 427.021 292.646 427.021 262.412C427.02 232.178 421.065 202.24 409.494 174.307C397.924 146.375 380.965 120.995 359.587 99.6165L359.54 99.6628C342.633 82.9941 322.661 69.7457 300.719 60.6566C278.373 51.4004 254.422 46.6369 230.235 46.6367C206.048 46.6364 182.098 51.4002 159.752 60.6559C137.407 69.9116 117.102 83.4779 99.9998 100.581C82.8971 117.683 69.3309 137.987 60.0752 160.333C50.8194 182.679 46.055 206.629 46.0553 230.817C46.0556 255.003 50.8198 278.954 60.0759 301.299C69.3321 323.645 82.8996 343.95 100.003 361.053L100.049 361.006C112.68 373.4 127.576 383.256 143.932 390.031C160.692 396.973 178.655 400.545 196.795 400.546C214.935 400.546 232.898 396.974 249.657 390.032C266.416 383.091 281.644 372.915 294.471 360.088C307.298 347.261 317.474 332.033 324.416 315.274C331.357 298.514 334.929 280.551 334.929 262.411C334.929 244.271 331.356 226.308 324.414 209.549C317.472 192.789 307.297 177.561 294.469 164.734L294.422 164.782C286.068 156.662 276.247 150.198 265.478 145.737C254.305 141.109 242.329 138.727 230.236 138.727C218.143 138.727 206.167 141.109 194.994 145.737C183.822 150.364 173.67 157.148 165.118 165.699C156.567 174.25 149.784 184.402 145.156 195.575C140.528 206.748 138.146 218.723 138.146 230.817C138.146 242.91 140.528 254.886 145.157 266.059C149.785 277.232 156.568 287.384 165.12 295.935L165.174 295.881C173.71 303.944 185.019 308.455 196.794 308.455C209.006 308.455 220.718 303.604 229.353 294.969C237.988 286.334 242.839 274.622 242.839 262.411C242.839 250.199 237.987 238.486 229.352 229.851L213.073 246.131C222.063 255.122 222.063 269.698 213.073 278.689C204.082 287.68 189.505 287.68 180.514 278.689L180.483 278.72C154.431 251.681 154.735 208.642 181.399 181.979C208.371 155.007 252.102 155.007 279.075 181.98L279.11 181.945C323.142 226.97 322.836 299.163 278.191 343.808C233.237 388.762 160.352 388.761 115.397 343.807L115.362 343.841C53.3487 280.833 53.6522 179.487 116.279 116.86C179.215 53.9242 281.255 53.9255 344.193 116.863L344.231 116.825C424.225 197.816 423.919 328.319 343.311 408.927C262.393 489.845 131.198 489.843 50.2793 408.924L33.9999 425.203C55.3785 446.582 80.7586 463.541 108.691 475.111C136.623 486.681 166.562 492.636 196.796 492.637C227.03 492.637 256.967 486.683 284.899 475.113C312.831 463.543 338.212 446.585 359.59 425.207Z" fill="#FE40B4"/>
</svg>
