<svg width="500" height="500" viewBox="0 0 500 500" fill="none" xmlns="http://www.w3.org/2000/svg">
<g clip-path="url(#clip0_24_2)">
<g clip-path="url(#clip1_24_2)">
<path d="M233 0.99998C185 4.29998 137.8 22 99.6 51C40.7 95.7 5.19999 162.3 0.499993 237C-0.200007 248.6 1.29999 275 3.49999 289.1C14.5 359.6 56.5 423.1 117.5 461.5C128.6 468.5 151.3 479.7 164.1 484.4C178.2 489.6 198.5 494.6 215 497.1C235.2 500 264.6 500 285 497C327.1 490.9 365.4 474.9 400 449.2C414.2 438.6 437.9 415.1 448.4 401.1C491.1 344.5 507.7 275.6 495.4 206C476.7 100.8 391 17.9 285.5 3.09998C268.6 0.79998 248.5 -1.96466e-05 233 0.99998ZM277.5 26.1C351.5 34.5 419.5 83.3 452.5 151.5C489.7 228.3 481.1 317.5 429.9 385.7C394.8 432.4 340.9 464.4 282.7 473.1C263 476 236.9 476.1 217.4 473.1C144.1 462.1 81.7 417.1 48.7 351.5C31.9 318.2 24.9 288.1 24.7 249.5C24.6 223.3 27.3 205.6 35.1 181.4C57 112.9 111.7 57.9 180 35.7C212.2 25.2 243 22.2 277.5 26.1Z" fill="#FE40B4"/>
<path d="M231 69.1C163.4 76 103.2 122.7 79.5 186.5C69.2 214.2 66 241.3 69.5 271C76 326.7 107 375.3 155.1 405C214.1 441.6 290.2 440.5 349 402.2C373.5 386.3 396.2 361.6 410.5 335.5C433.5 293.1 437.9 240.9 422.5 193.2C417.9 179.2 406.7 156.9 398.3 145C390.5 134.2 374.8 117.4 364.5 109C327.6 78.8 278.9 64.3 231 69.1ZM281.4 95.5C314.6 102.2 343.6 118.8 367.1 144.5C390.1 169.8 404.1 202.4 407.2 238C409.6 265.8 404.5 292.4 392 318.6C384.3 334.6 376 346 361.5 360.6C337.5 384.9 312.8 398.2 279 405.1C269.4 407 264.5 407.4 249.5 407.4C233.9 407.4 229.8 407 218.9 404.7C184.4 397.4 154.7 380.4 132.2 355C79.6 295.5 78.5 208.9 129.5 148.1C155 117.7 192.7 97.6 232.9 93C245.6 91.5 267.4 92.6 281.4 95.5Z" fill="#FE40B4"/>
<path d="M230.5 135.4C183.7 144.5 149 176.9 136.8 223C134.2 232.7 133.3 254.7 134.9 266C141.8 313 175.2 350.2 221.7 362.7C230.5 365.1 233.3 365.4 249.5 365.4C266.1 365.5 268.3 365.3 277.7 362.7C298.9 357 315.4 347.7 330.8 332.6C366.8 297.5 376 245.8 354.5 200.3C348.4 187.3 341.4 177.6 330.5 167.1C314.9 152.1 298.8 142.9 278 137.3C266.2 134.2 241.9 133.2 230.5 135.4ZM274 161C313.5 172.5 339.6 205.4 341.7 246.5C343.5 282.9 323 317 289.6 333C277.5 338.7 268.4 341 254.5 341.7C240.2 342.3 229.4 340.7 217.5 336.1C190 325.5 170 303.9 161.4 275.5C158.9 267.3 158.7 265 158.6 250C158.5 230.8 159.4 226.3 167.1 210.4C178.8 185.8 199.8 168.3 226 161.2C236.6 158.3 237.9 158.1 253 158.5C263.1 158.8 268.4 159.4 274 161Z" fill="#FE40B4"/>
<path d="M236.5 196.4C228.2 198.4 219.5 203.7 212.7 210.9C196.9 227.7 192.6 252.5 202.1 271.2C204.9 276.6 213.9 286.1 220.5 290.5C227.3 295 239.1 298.9 248.2 299.6C272.5 301.7 295.1 282.7 300.7 255.5C302.1 248.4 302.1 247 300.6 239.6C297.3 222.6 287 208.6 272.9 201.6C260.7 195.6 247.5 193.7 236.5 196.4ZM262.1 221.8C276.9 229 283 246.3 275.7 260.5C272.7 266.4 269.1 270 263 273.2C259.2 275.1 257 275.5 249 275.5C240.5 275.5 239 275.2 235 272.8C224.6 266.7 219.8 258.3 219.6 246.1C219.6 240.1 220 237.5 221.9 233.8C224.6 228.2 230.6 222.7 236.4 220.6C242.6 218.3 256.2 219 262.1 221.8Z" fill="#FE40B4"/>
</g>
</g>
<defs>
<clipPath id="clip0_24_2">
<rect width="500" height="500" fill="white"/>
</clipPath>
<clipPath id="clip1_24_2">
<rect width="500" height="500" fill="white"/>
</clipPath>
</defs>
</svg>
